<?xml version="1.0" encoding="UTF-8"?>
<!DOCTYPE svg PUBLIC "-//W3C//DTD SVG 1.1//EN" "http://www.w3.org/Graphics/SVG/1.1/DTD/svg11.dtd">
<!-- Creator: CorelDRAW X7 -->
<svg xmlns="http://www.w3.org/2000/svg" xml:space="preserve" width="0.5in" height="0.498346in" version="1.1" style="shape-rendering:geometricPrecision; text-rendering:geometricPrecision; image-rendering:optimizeQuality; fill-rule:evenodd; clip-rule:evenodd"
viewBox="0 0 544 542"
 xmlns:xlink="http://www.w3.org/1999/xlink">
 <defs>
  <style type="text/css">
   <![CDATA[
    .fil0 {fill:#193651}
    .fil4 {fill:#2EA2DB}
    .fil3 {fill:#F16051}
    .fil2 {fill:#FDBE5E}
    .fil1 {fill:#FEFEFE}
   ]]>
  </style>
 </defs>
 <g id="Layer_x0020_1">
  <metadata id="CorelCorpID_0Corel-Layer"/>
  <g id="_296940536">
   <g id="_315953888">
    <path class="fil0" d="M144 36c-47,-24 -91,3 -99,45 -2,12 -6,4 -20,19l-9 10c-10,12 -15,28 -16,43l0 12c1,9 3,18 7,26 12,26 35,42 63,47 15,2 121,0 146,0l-12 17c-12,-1 -33,-6 -42,-6 -3,5 -19,62 -20,66 10,2 29,16 38,17 0,32 4,40 4,47 -6,4 -11,7 -17,12 -4,3 -13,9 -16,13 1,5 30,59 31,60 6,-1 30,-11 40,-13 4,3 14,14 26,22 13,10 10,3 6,28 -1,8 -2,15 -3,21 4,2 11,4 16,6l32 10c5,1 13,4 18,4 1,-4 6,-13 8,-18 2,-6 7,-13 9,-19 22,0 41,-4 47,-4 7,11 17,23 24,33 7,-2 23,-12 30,-15 11,-6 20,-11 31,-16 -4,-13 -10,-26 -13,-40l14 -16c4,-5 12,-14 13,-19 8,0 37,4 44,6l10 -32c2,-7 10,-29 10,-34l-28 -13c-3,-1 -7,-2 -10,-4 3,-6 0,-16 0,-22 0,-10 -3,-19 -3,-23 0,-1 29,-23 33,-25 -2,-5 -27,-52 -31,-61 -7,1 -31,11 -40,13 -5,-3 -27,-26 -37,-29 2,-6 3,-13 4,-21 1,-6 3,-14 3,-22 -6,-1 -25,-8 -32,-10 -6,-1 -11,-3 -16,-5 -4,-1 -13,-4 -17,-4 -1,3 -16,35 -19,37 5,-24 0,-52 -15,-70 -22,-24 -26,-19 -32,-24 -3,-2 -1,1 -3,-4 -3,-13 0,-19 -12,-38 -16,-27 -44,-43 -75,-43 -1,0 -4,0 -6,0 -19,1 -41,11 -53,23 -3,3 -10,9 -11,13l0 0z"/>
    <path class="fil1" d="M148 61c-6,-4 -9,-11 -23,-15 -11,-4 -24,-3 -34,1 -23,11 -27,28 -29,50 -19,9 -34,19 -41,41 -11,34 7,69 39,80 12,5 24,4 38,4l166 0c30,0 46,-7 59,-24 22,-28 16,-68 -9,-87 -11,-9 -14,-9 -29,-15 -2,-25 0,-32 -14,-50 -8,-12 -20,-22 -38,-27 -57,-14 -81,39 -85,42l0 0z"/>
    <path class="fil2" d="M323 221c-3,2 -6,4 -9,6 -4,2 -7,4 -11,6 -8,3 -16,5 -25,5 -6,6 -20,14 -30,27 -31,40 -36,87 -14,133 21,45 84,86 154,59 87,-33 108,-154 26,-214 -17,-13 -40,-21 -63,-23 -10,0 -20,2 -28,1l0 0z"/>
    <path class="fil1" d="M323 221c8,1 18,-1 28,-1 23,2 46,10 63,23 82,60 61,181 -26,214 -70,27 -133,-14 -154,-59 -22,-46 -17,-93 14,-133 10,-13 24,-21 30,-27 -8,1 -17,1 -25,1 -14,0 -12,-2 -19,5 -5,5 -18,22 -20,30 -48,-7 -38,-11 -45,12 -2,6 -5,14 -6,19l36 18c-3,28 0,39 5,64l-32 24 17 34 37 -12c12,9 14,21 48,39 1,9 -4,29 -5,40l37 11 17 -36c12,1 22,2 34,1 11,-2 20,-4 30,-6 6,10 17,21 23,32l35 -18 -13 -38c13,-6 35,-35 41,-47l39 6 11 -38 -35 -17c2,-38 0,-32 -5,-64 10,-6 21,-17 31,-23l-17 -35 -37 12c-6,-4 -19,-25 -49,-39l5 -38 -36 -12 -18 35 -19 -2c-4,5 -8,13 -14,19 -3,3 -4,3 -6,6l0 0z"/>
    <path class="fil0" d="M258 347c4,-3 35,-2 39,-1l1 41 11 0 0 -65c1,-27 -37,-40 -55,-20 -9,11 -9,21 -9,39 0,12 -1,34 1,46l12 0 0 -40z"/>
    <path class="fil0" d="M327 387l12 0 0 -34c18,-3 49,7 46,-37 -1,-12 -8,-21 -19,-23 -6,-2 -32,-1 -39,-1l0 95 0 0z"/>
    <path class="fil3" d="M99 148l14 -11c4,3 46,46 49,51 5,-2 15,-14 19,-18 -4,-7 -47,-44 -51,-52l12 -12 -43 0 0 42 0 0z"/>
    <path class="fil4" d="M169 98c3,5 20,21 25,26 7,7 20,19 26,26 -4,4 -10,8 -13,13l42 0 1 -43c-5,4 -8,9 -13,12 -8,-6 -19,-18 -25,-25 -5,-5 -22,-24 -26,-26l-17 17 0 0z"/>
    <path class="fil0" d="M398 304l12 1c2,9 1,62 0,75l-12 0 0 12 37 1 0 -13 -12 0 0 -75 12 0 0 -13 -37 0 0 12 0 0z"/>
    <path class="fil2" d="M339 339c5,1 20,1 24,0 8,-2 9,-7 9,-17 0,-9 -1,-15 -8,-17 -5,-1 -19,0 -24,0l-1 34 0 0z"/>
    <path class="fil2" d="M258 334l39 0c0,-39 -28,-31 -35,-21 -5,6 -4,13 -4,21z"/>
    <polygon class="fil0" points="52,377 70,377 70,360 52,360 "/>
    <polygon class="fil0" points="52,428 70,428 70,411 52,411 "/>
    <polygon class="fil0" points="52,327 70,327 70,310 52,310 "/>
   </g>
  </g>
 </g>
</svg>
