<?xml version="1.0" encoding="UTF-8"?>
<!DOCTYPE svg PUBLIC "-//W3C//DTD SVG 1.1//EN" "http://www.w3.org/Graphics/SVG/1.1/DTD/svg11.dtd">
<!-- Creator: CorelDRAW X7 -->
<svg xmlns="http://www.w3.org/2000/svg" xml:space="preserve" width="0.5in" height="0.5in" version="1.1" style="shape-rendering:geometricPrecision; text-rendering:geometricPrecision; image-rendering:optimizeQuality; fill-rule:evenodd; clip-rule:evenodd"
viewBox="0 0 467 467"
 xmlns:xlink="http://www.w3.org/1999/xlink">
 <defs>
  <style type="text/css">
   <![CDATA[
    .fil0 {fill:#673AB7}
    .fil1 {fill:white}
   ]]>
  </style>
 </defs>
 <g id="Layer_x0020_1">
  <metadata id="CorelCorpID_0Corel-Layer"/>
  <g id="_299078544">
   <path class="fil0" d="M467 402c0,36 -29,65 -65,65l-337 0c-36,0 -65,-29 -65,-65l0 -337c0,-36 29,-65 65,-65l337 0c36,0 65,29 65,65l0 337z"/>
   <path class="fil1" d="M351 254c-9,-11 -21,-19 -36,-24 0,0 13,-4 25,-22 7,-12 10,-25 10,-42 0,-27 -10,-49 -30,-64 -20,-14 -43,-24 -82,-24l-121 0 0 311 135 0c37,0 65,-8 83,-23 19,-15 28,-38 28,-69 0,-17 -4,-31 -12,-43zm-156 -124c0,0 54,0 55,0 20,0 36,16 36,36 0,19 -16,35 -36,35 -1,0 -55,0 -55,0l0 -71zm65 208l-65 0 0 -78 65 0c21,0 39,17 39,39 0,21 -18,39 -39,39z"/>
  </g>
 </g>
</svg>
