<?xml version="1.0" encoding="utf-8"?>
<!-- Svg Vector Icons : http://www.onlinewebfonts.com/icon -->
<!DOCTYPE svg PUBLIC "-//W3C//DTD SVG 1.1//EN" "http://www.w3.org/Graphics/SVG/1.1/DTD/svg11.dtd">
<svg version="1.1" xmlns="http://www.w3.org/2000/svg" xmlns:xlink="http://www.w3.org/1999/xlink" x="0px" y="0px" viewBox="0 0 256 256" enable-background="new 0 0 256 256" xml:space="preserve">
<metadata> Svg Vector Icons : http://www.onlinewebfonts.com/icon </metadata>
<g><g><g><path fill="#000000" d="M123.4,10.8c-3.2,1.1-5.9,3.5-7.6,6.6c-1.1,2-1.2,2.9-1.4,20.8l-0.3,18.7l-13.8,0.1c-15.2,0.1-15.6,0.2-15.2,3c0.1,0.9,9.3,17.2,20.4,36.3c21.2,36.3,21.5,36.7,23.9,35.2c1.3-0.8,41.7-70.5,41.7-71.9c0-2.4-0.7-2.5-15.3-2.6l-13.8-0.1l-0.3-18.7c-0.3-17.9-0.3-18.8-1.4-20.8c-1.6-3.1-4.9-5.8-8.1-6.7C128.6,9.6,126.8,9.6,123.4,10.8z"/><path fill="#000000" d="M21.8,145.9c-4.8,1.5-9.1,5.5-10.8,9.8c-0.9,2.5-1,4.5-1,40.4c0,37.5,0,37.8,1.1,40.3c1.6,3.5,4.6,6.5,8,8.2l3,1.5H128h105.9l2.4-1.1c3.5-1.6,6.5-4.6,8.2-8l1.5-3v-37.8c0-36-0.1-38-1-40.4c-1.3-3.3-4.5-6.8-7.9-8.6l-2.6-1.4l-105.6-0.1C70.7,145.5,22.6,145.7,21.8,145.9z M213.8,167.7c3.4,1.5,6.7,6.4,6.7,10.1c0,2.2-1.2,5.1-2.8,6.9c-4.8,5.5-12.9,5-17-1.1c-3.7-5.5-1.5-13.1,4.6-15.8C207.6,166.8,211.6,166.8,213.8,167.7z"/></g></g></g>
</svg>