<?xml version="1.0" encoding="utf-8"?>
<!-- Svg Vector Icons : http://www.onlinewebfonts.com/icon -->
<!DOCTYPE svg PUBLIC "-//W3C//DTD SVG 1.1//EN" "http://www.w3.org/Graphics/SVG/1.1/DTD/svg11.dtd">
<svg version="1.1" xmlns="http://www.w3.org/2000/svg" xmlns:xlink="http://www.w3.org/1999/xlink" x="0px" y="0px" viewBox="0 0 256 256" enable-background="new 0 0 256 256" xml:space="preserve">
<metadata> Svg Vector Icons : http://www.onlinewebfonts.com/icon </metadata>
<g><g><g><path fill="#000000" d="M27.4,53c-5.7,1.1-12.1,5.9-14.7,11.1C9.9,69.4,10,66.9,10,128c0,36.3,0.2,57.2,0.5,58.6c1.3,5.6,6,11.7,10.9,14.2c5.7,2.8-0.9,2.7,106.6,2.7c86.9,0,98.8-0.1,101.4-0.7c7.9-2.1,13.9-8.1,16-15.9c0.5-1.9,0.7-13.3,0.7-58.9c0-61.1,0.1-58.5-2.7-63.9c-2.7-5.4-9-10-15.2-11.1C224.9,52.3,30.5,52.4,27.4,53z M212,67.3c-1,0.9-83.5,50.4-84,50.4S44.9,68.2,44.1,67.4c-0.3-0.2,36.2-0.4,83.9-0.4C174.4,66.9,212.2,67.1,212,67.3z M60.7,94.5c19.5,11.7,35.7,21.6,36.1,21.9c0.4,0.4-7,7.3-34.2,31.2c-19.2,16.8-35.6,31.3-36.4,32l-1.6,1.4v-53.8c0-29.9,0.2-53.9,0.4-53.9C25.1,73.2,41.3,82.8,60.7,94.5z M231.5,126.1c0,49.6,0,52.9-0.8,52.3c-5.1-4.1-70.4-62-70.4-62.3c0-0.6,69.6-42.8,70.6-42.8C231.4,73.2,231.5,84.1,231.5,126.1z M183.6,156.5l36.7,32.3l-45.6,0.1c-25.1,0-66.2,0-91.3,0l-45.8-0.1l36-31.7c19.8-17.4,36.2-31.8,36.6-32c0.3-0.2,3.4,1.3,8,4.1c10,5.9,9.4,6,19.9-0.4c4.4-2.7,8.2-4.8,8.3-4.7C146.8,124.1,163.5,138.6,183.6,156.5z"/></g></g></g>
</svg>