<?xml version="1.0" encoding="UTF-8"?>
<!DOCTYPE svg PUBLIC "-//W3C//DTD SVG 1.1//EN" "http://www.w3.org/Graphics/SVG/1.1/DTD/svg11.dtd">
<!-- Creator: CorelDRAW X7 -->
<svg xmlns="http://www.w3.org/2000/svg" xml:space="preserve" width="0.5in" height="0.75in" version="1.1" style="shape-rendering:geometricPrecision; text-rendering:geometricPrecision; image-rendering:optimizeQuality; fill-rule:evenodd; clip-rule:evenodd"
viewBox="0 0 253 379"
 xmlns:xlink="http://www.w3.org/1999/xlink">
 <defs>
  <style type="text/css">
   <![CDATA[
    .fil4 {fill:#29B6F6}
    .fil2 {fill:#66BB6A}
    .fil1 {fill:#7C4DFF}
    .fil0 {fill:#E64A19}
    .fil3 {fill:#FF7043}
   ]]>
  </style>
 </defs>
 <g id="Layer_x0020_1">
  <metadata id="CorelCorpID_0Corel-Layer"/>
  <g id="_296396264">
   <path class="fil0" d="M135 126l-72 0c-35,0 -63,-28 -63,-63l0 0c0,-35 28,-63 63,-63l72 0 0 126z"/>
   <path class="fil1" d="M126 253l-63 0c-35,0 -63,-28 -63,-63l0 0c0,-35 28,-64 63,-64l63 0 0 127z"/>
   <path class="fil2" d="M63 379l0 0c-35,0 -63,-28 -63,-63l0 0c0,-35 28,-63 63,-63l63 0 0 63c0,35 -28,63 -63,63z"/>
   <path class="fil3" d="M190 126l-64 0 0 -126 64 0c35,0 63,28 63,63l0 0c0,35 -28,63 -63,63z"/>
   <circle class="fil4" cx="190" cy="190" r="63"/>
  </g>
 </g>
</svg>
