<?xml version="1.0" encoding="UTF-8"?>
<!DOCTYPE svg PUBLIC "-//W3C//DTD SVG 1.1//EN" "http://www.w3.org/Graphics/SVG/1.1/DTD/svg11.dtd">
<!-- Creator: CorelDRAW X7 -->
<svg xmlns="http://www.w3.org/2000/svg" xml:space="preserve" width="0.5in" height="0.5in" version="1.1" style="shape-rendering:geometricPrecision; text-rendering:geometricPrecision; image-rendering:optimizeQuality; fill-rule:evenodd; clip-rule:evenodd"
viewBox="0 0 106 106"
 xmlns:xlink="http://www.w3.org/1999/xlink">
 <defs>
  <style type="text/css">
   <![CDATA[
    .fil0 {fill:#F4511E}
   ]]>
  </style>
 </defs>
 <g id="Layer_x0020_1">
  <metadata id="CorelCorpID_0Corel-Layer"/>
  <path class="fil0" d="M104 48l-45 -46c-2,-1 -4,-2 -6,-2 0,0 0,0 0,0 -2,0 -4,1 -5,2l-10 10 12 12c1,-1 2,-1 3,-1 5,0 9,3 9,8 0,1 -1,3 -1,4l11 11c1,-1 2,-1 4,-1 4,0 8,4 8,8 0,5 -4,9 -8,9 -5,0 -9,-4 -9,-9 0,-1 0,-2 1,-3l-11 -11c0,0 -1,0 -1,0l0 29c3,1 6,4 6,8 0,5 -4,8 -9,8 -5,0 -8,-3 -8,-8 0,-4 2,-7 5,-8l0 -29c-3,-1 -5,-5 -5,-8 0,-2 0,-3 1,-4l-12 -11 -32 32c-1,1 -2,3 -2,5 0,2 1,4 2,6l46 45c0,0 0,0 0,0 1,2 3,2 5,2 2,0 4,0 6,-2l45 -45c2,-2 2,-4 2,-6 0,-2 0,-4 -2,-5z"/>
 </g>
</svg>
