<?xml version="1.0" encoding="UTF-8"?>
<!DOCTYPE svg PUBLIC "-//W3C//DTD SVG 1.1//EN" "http://www.w3.org/Graphics/SVG/1.1/DTD/svg11.dtd">
<!-- Creator: CorelDRAW X7 -->
<svg xmlns="http://www.w3.org/2000/svg" xml:space="preserve" width="0.5in" height="0.488331in" version="1.1" style="shape-rendering:geometricPrecision; text-rendering:geometricPrecision; image-rendering:optimizeQuality; fill-rule:evenodd; clip-rule:evenodd"
viewBox="0 0 103 101"
 xmlns:xlink="http://www.w3.org/1999/xlink">
 <defs>
  <style type="text/css">
   <![CDATA[
    .fil0 {fill:black}
   ]]>
  </style>
 </defs>
 <g id="Layer_x0020_1">
  <metadata id="CorelCorpID_0Corel-Layer"/>
  <g id="_296886392">
   <g>
    <path class="fil0" d="M96 26c-4,-8 -11,-14 -18,-19 -8,-5 -17,-7 -26,-7 -10,0 -18,2 -26,7 -8,5 -14,11 -19,19 -5,8 -7,16 -7,26 0,11 3,21 10,30 6,9 15,15 25,19 2,0 2,0 3,-1 1,0 1,-1 1,-2 0,0 0,-1 0,-4 0,-2 0,-4 0,-6l-2 1c-1,0 -2,0 -3,0 -2,0 -4,0 -5,-1 -2,0 -3,0 -5,-2 -1,-1 -2,-2 -3,-4l0 -1c-1,-1 -1,-2 -2,-4 -1,-1 -2,-2 -3,-2l-1 0c0,-1 0,-1 -1,-1 0,-1 0,-1 0,-1 0,-1 0,-1 0,-1 0,0 1,0 2,0l1 0c1,0 2,1 4,2 1,0 2,2 3,3 1,2 2,3 4,4 1,1 3,2 4,2 2,0 3,0 4,-1 1,0 2,0 3,-1 0,-3 1,-5 3,-7 -2,0 -5,0 -7,-1 -2,0 -4,-1 -6,-2 -2,-2 -4,-3 -5,-5 -2,-2 -3,-4 -4,-7 -1,-3 -1,-6 -1,-10 0,-5 1,-10 5,-14 -2,-4 -2,-9 0,-14 2,0 4,0 6,1 3,1 5,2 6,3 1,1 2,1 3,2 4,-1 8,-2 13,-2 4,0 8,1 12,2l3 -2c2,-1 4,-2 6,-3 2,-1 4,-1 6,-1 2,5 2,10 0,14 4,4 5,9 5,14 0,4 0,7 -1,10 -1,3 -2,5 -4,7 -1,2 -3,3 -5,5 -2,1 -4,2 -6,2 -2,1 -5,1 -7,1 2,2 3,6 3,10l0 14c0,1 1,2 1,2 1,1 2,1 3,1 10,-4 19,-10 25,-19 7,-9 10,-19 10,-30 0,-10 -2,-18 -7,-26z"/>
   </g>
  </g>
 </g>
</svg>
