<?xml version="1.0" encoding="UTF-8"?>
<!DOCTYPE svg PUBLIC "-//W3C//DTD SVG 1.1//EN" "http://www.w3.org/Graphics/SVG/1.1/DTD/svg11.dtd">
<!-- Creator: CorelDRAW X7 -->
<svg xmlns="http://www.w3.org/2000/svg" xml:space="preserve" width="0.5in" height="0.5in" version="1.1" style="shape-rendering:geometricPrecision; text-rendering:geometricPrecision; image-rendering:optimizeQuality; fill-rule:evenodd; clip-rule:evenodd"
viewBox="0 0 97 97"
 xmlns:xlink="http://www.w3.org/1999/xlink">
 <defs>
  <style type="text/css">
   <![CDATA[
    .fil0 {fill:#EBD52E}
   ]]>
  </style>
 </defs>
 <g id="Layer_x0020_1">
  <metadata id="CorelCorpID_0Corel-Layer"/>
  <g id="_296893208">
   <path class="fil0" d="M0 0l97 0 0 97 -97 0 0 -97zm89 74c-1,-5 -3,-8 -12,-12 -3,-1 -6,-2 -7,-4 -1,-2 -1,-2 0,-3 0,-3 3,-4 6,-3 1,1 3,2 4,4 4,-3 4,-3 7,-5 -1,-1 -2,-2 -3,-3 -2,-3 -6,-4 -11,-4l-3 0c-3,1 -5,2 -7,4 -4,5 -3,15 2,18 6,4 14,5 15,9 1,5 -3,7 -8,6 -3,-1 -5,-2 -7,-5l-7 4c0,2 1,3 3,4 7,7 25,7 28,-4 0,0 1,-3 0,-6l0 0 0 0zm-36 -29l-9 0c0,7 0,15 0,23 0,5 0,10 -1,11 -1,3 -5,2 -6,2 -2,-1 -3,-2 -4,-3 0,-1 0,-1 0,-1l-8 4c2,3 4,5 6,6 3,2 8,3 13,2 3,-1 6,-3 7,-6 2,-3 2,-8 2,-13 0,-8 0,-17 0,-25l0 0 0 0z"/>
  </g>
 </g>
</svg>
