<?xml version="1.0" encoding="utf-8"?>
<!-- Svg Vector Icons : http://www.onlinewebfonts.com/icon -->
<!DOCTYPE svg PUBLIC "-//W3C//DTD SVG 1.1//EN" "http://www.w3.org/Graphics/SVG/1.1/DTD/svg11.dtd">
<svg version="1.1" xmlns="http://www.w3.org/2000/svg" xmlns:xlink="http://www.w3.org/1999/xlink" x="0px" y="0px" viewBox="0 0 256 256" enable-background="new 0 0 256 256" xml:space="preserve">
<metadata> Svg Vector Icons : http://www.onlinewebfonts.com/icon </metadata>
<g><g><g><path fill="#000000" d="M120.7,10.5C95,12.9,72.1,28.7,60.4,51.9c-6.6,13-9.6,29.2-7.5,39.7c3.8,19.1,26.1,71.6,59.3,139.5l7.3,14.9h8.5h8.5l7.6-15.5c32.6-66.8,55.1-119.7,59-139c1.5-7.5,0.1-20.1-3.5-30.3c-10.1-28.4-35-47.9-65-50.8C128.2,9.8,127.2,9.8,120.7,10.5z M138.8,45.2c19.1,4.8,32.5,23.6,31.3,43.4c-1.2,18.9-14.4,34.3-33,38.6c-4.4,1-13.5,1-17.9,0c-15.5-3.6-27.3-14.8-31.7-30.1c-1-3.4-1.2-5.3-1.2-11.5c0-6.9,0.1-7.7,1.7-12.4C90.4,66,93.1,61.5,98.7,56c6.7-6.7,14-10.4,23.2-11.9C126.3,43.5,134,43.9,138.8,45.2z"/></g></g></g>
</svg>