<?xml version="1.0" encoding="utf-8"?>
<!-- Svg Vector Icons : http://www.onlinewebfonts.com/icon -->
<!DOCTYPE svg PUBLIC "-//W3C//DTD SVG 1.1//EN" "http://www.w3.org/Graphics/SVG/1.1/DTD/svg11.dtd">
<svg version="1.1" xmlns="http://www.w3.org/2000/svg" xmlns:xlink="http://www.w3.org/1999/xlink" x="0px" y="0px" viewBox="0 0 256 256" enable-background="new 0 0 256 256" xml:space="preserve">
<metadata> Svg Vector Icons : http://www.onlinewebfonts.com/icon </metadata>
<g><g><g><path fill="#000000" d="M50.2,18.5c-2.7,1.5-11.3,9.3-16.6,15.1C19.9,48.3,12,61.8,10.4,73.3c-0.8,5.6-0.3,9.4,2.1,16c11.7,31.9,28.2,58.1,51.4,81.8c25.8,26.3,57.5,46.6,93.3,59.7c14.4,5.3,24,7.6,31.9,7.6l5.6,0l4.1-2.1c4.9-2.5,12.6-7.6,17.6-11.6c8.6-7,20.2-19.4,26.6-28.4c3-4.2,3.6-6.5,2.6-9.4c-0.8-2.3-2-3.3-12.7-10c-5.3-3.4-16.3-10.5-24.3-15.8c-8-5.3-15.4-9.9-16.2-10.3c-2.2-0.9-4.7-0.8-7.1,0.2c-1.7,0.7-2.5,1.7-5.4,6.1c-8.9,13.7-15.8,22.2-19.1,23.5c-2.6,1-4.7,0.4-12.1-3.5c-26.7-14.1-48.9-33.8-70.3-62.6c-5.9-7.9-6.7-9.5-6.7-12.2c0-1.8,0.3-2.5,2.9-5.9C78.2,92,88,81.8,93.4,77.3c4.9-4.1,5-4.2,5.6-7.1c0.7-3,0.1-4.3-4.5-10.5C81,41.8,61.7,20.2,57.7,18.3C55.2,17.2,52.5,17.2,50.2,18.5z"/></g></g></g>
</svg>