<?xml version="1.0" encoding="UTF-8"?>
<!DOCTYPE svg PUBLIC "-//W3C//DTD SVG 1.1//EN" "http://www.w3.org/Graphics/SVG/1.1/DTD/svg11.dtd">
<!-- Creator: CorelDRAW X7 -->
<svg xmlns="http://www.w3.org/2000/svg" xml:space="preserve" width="0.5in" height="0.445654in" version="1.1" style="shape-rendering:geometricPrecision; text-rendering:geometricPrecision; image-rendering:optimizeQuality; fill-rule:evenodd; clip-rule:evenodd"
viewBox="0 0 107 95"
 xmlns:xlink="http://www.w3.org/1999/xlink">
 <defs>
  <style type="text/css">
   <![CDATA[
    .fil0 {fill:#6DC8E7}
   ]]>
  </style>
 </defs>
 <g id="Layer_x0020_1">
  <metadata id="CorelCorpID_0Corel-Layer"/>
  <g id="_299029800">
   <path class="fil0" d="M44 48c0,5 4,9 10,9 5,0 9,-4 9,-9 0,-6 -4,-10 -9,-10 -6,0 -10,4 -10,10z"/>
   <path class="fil0" d="M107 48c0,-8 -9,-14 -22,-18 3,-14 2,-25 -5,-29 -6,-3 -16,1 -26,11 -11,-10 -21,-14 -27,-11 -7,4 -8,15 -5,29 -13,4 -22,10 -22,18 0,7 9,14 22,18 -3,13 -2,24 5,28 1,1 3,1 5,1 5,0 11,-2 17,-7 1,-2 3,-3 5,-4 1,1 3,2 4,4 6,5 12,7 17,7 2,0 4,0 5,-1 7,-4 8,-15 5,-28 13,-4 22,-11 22,-18zm-29 -43c4,3 5,12 2,24 -4,-1 -9,-2 -14,-3 -3,-4 -6,-8 -9,-11 7,-7 13,-10 18,-10 1,0 2,0 3,0zm-10 51c-1,3 -3,6 -5,9 -3,0 -6,0 -9,0 -4,0 -7,0 -10,0 -2,-3 -4,-6 -5,-9 -2,-3 -4,-6 -5,-8 1,-3 3,-6 5,-9 1,-3 3,-6 5,-8 3,0 6,-1 10,-1 3,0 6,1 9,1 2,2 4,5 5,8 2,3 4,6 5,9 -1,2 -3,5 -5,8l0 0zm7 -3c2,3 3,6 4,9 -3,1 -6,1 -10,2 1,-2 2,-4 4,-5 1,-2 2,-4 2,-6zm-21 24c-3,-2 -5,-5 -7,-8 2,0 4,0 7,0 2,0 4,0 6,0 -2,3 -4,6 -6,8zm-16 -13c-4,0 -7,-1 -10,-2 1,-3 2,-6 4,-9 1,2 2,4 3,6 1,1 2,3 3,5zm-6 -22c-2,-3 -3,-6 -4,-9 3,-1 6,-1 10,-2 -1,2 -2,4 -3,6 -1,2 -2,3 -3,5zm22 -24c2,3 4,5 6,8 -2,0 -4,0 -6,0 -3,0 -5,0 -7,0 2,-3 4,-5 7,-8zm18 19c-1,-2 -2,-4 -3,-6 4,1 7,1 10,2 -1,3 -2,6 -4,9 0,-2 -1,-3 -3,-5zm-43 -32c1,0 2,0 3,0 5,0 11,3 18,10 -3,3 -6,7 -9,11 -5,1 -10,2 -14,3 -3,-12 -2,-21 2,-24zm-24 43c0,-5 7,-10 19,-14 1,5 3,9 5,14 -2,4 -4,9 -5,13 -12,-3 -19,-9 -19,-13l0 0zm41 36c-7,6 -13,8 -17,6 -4,-2 -5,-11 -2,-23 4,1 9,1 14,2 3,4 6,8 9,11 -1,2 -3,3 -4,4zm32 6c-4,2 -10,0 -17,-6 -1,-1 -3,-2 -4,-4 3,-3 6,-7 9,-11 5,0 10,-1 14,-2 3,12 2,21 -2,23l0 0zm5 -29c-1,-4 -3,-9 -5,-13 2,-5 4,-9 5,-14 12,4 19,9 19,14 0,4 -7,10 -19,13z"/>
  </g>
 </g>
</svg>
