<?xml version="1.0" encoding="UTF-8"?>
<!DOCTYPE svg PUBLIC "-//W3C//DTD SVG 1.1//EN" "http://www.w3.org/Graphics/SVG/1.1/DTD/svg11.dtd">
<!-- Creator: CorelDRAW X7 -->
<svg xmlns="http://www.w3.org/2000/svg" xml:space="preserve" width="0.5in" height="0.400291in" version="1.1" style="shape-rendering:geometricPrecision; text-rendering:geometricPrecision; image-rendering:optimizeQuality; fill-rule:evenodd; clip-rule:evenodd"
viewBox="0 0 71 57"
 xmlns:xlink="http://www.w3.org/1999/xlink">
 <defs>
  <style type="text/css">
   <![CDATA[
    .fil0 {fill:black}
   ]]>
  </style>
 </defs>
 <g id="Layer_x0020_1">
  <metadata id="CorelCorpID_0Corel-Layer"/>
  <g id="_604624632">
   <g>
    <g>
     <path class="fil0" d="M21 0c-2,1 -3,2 -4,4 0,0 0,1 0,2l-1 2 3 0 2 0 0 -1c0,-1 0,-2 0,-2 1,-1 0,-1 23,-1 19,0 22,0 22,0 1,1 1,0 1,16l0 15 -13 0 -14 0 0 5 0 5 14 0 13 0 1 0c1,-1 2,-2 3,-4l0 -1 0 -17 0 -18 0 -1c-1,-2 -2,-3 -3,-4l-1 0 -23 0c-12,0 -22,0 -23,0zm24 38c2,0 2,3 1,4 -1,1 -4,1 -5,-1 -1,-2 2,-5 4,-3z"/>
     <path class="fil0" d="M7 10c-1,0 -1,1 -1,1 -1,1 -1,2 -1,6l0 4 2 0 1 0 0 -2 0 -1 14 0 13 0 0 15 0 16 -6 0 -7 0 0 1c0,1 0,1 1,1 1,0 2,1 1,2 0,1 -1,2 -1,2 -1,0 -1,1 -1,1l-1 1 8 0c6,0 7,0 8,0 0,-1 1,-2 2,-2 0,0 0,-10 0,-22l0 -21 -1 -1c0,0 0,-1 -1,-1l0 0 -15 0c-13,-1 -14,-1 -15,0zm16 3c0,0 0,1 0,1 -1,1 -1,1 -2,0 0,0 0,0 0,-1 1,0 1,0 2,0z"/>
     <path class="fil0" d="M1 23c-1,1 -1,-1 -1,17 0,17 0,16 1,17l1 0 8 0 9 0 0 0c1,-1 1,0 1,-17 0,-15 0,-15 0,-16 0,0 -1,-1 -1,-1 -1,0 -1,0 -9,0 -8,0 -8,0 -9,0zm11 3l0 0 -2 0c-1,0 -2,0 -2,0 0,-1 0,-1 2,-1l2 0 0 1 0 0zm6 14l0 11 -8 0 -8 0 0 -11 0 -12 8 0 8 0 0 12 0 0zm-7 13c2,1 0,3 -1,3 -1,0 -2,-2 -1,-3 0,-1 2,-1 2,0z"/>
     <path class="fil0" d="M40 51c0,4 0,4 -1,5l0 1 8 0c7,0 7,0 8,0 0,0 1,-1 1,-1 0,-1 -1,-1 -2,-1 -2,-1 -4,-1 -4,-3 -1,-1 -1,-3 -1,-4l0 -1 -4 0 -5 0 0 4 0 0z"/>
    </g>
   </g>
  </g>
 </g>
</svg>
