<?xml version="1.0" encoding="UTF-8"?>
<!DOCTYPE svg PUBLIC "-//W3C//DTD SVG 1.1//EN" "http://www.w3.org/Graphics/SVG/1.1/DTD/svg11.dtd">
<!-- Creator: CorelDRAW X7 -->
<svg xmlns="http://www.w3.org/2000/svg" xml:space="preserve" width="0.500008in" height="0.373677in" version="1.1" style="shape-rendering:geometricPrecision; text-rendering:geometricPrecision; image-rendering:optimizeQuality; fill-rule:evenodd; clip-rule:evenodd"
viewBox="0 0 74 55"
 xmlns:xlink="http://www.w3.org/1999/xlink">
 <defs>
  <style type="text/css">
   <![CDATA[
    .fil0 {fill:#C46092}
   ]]>
  </style>
 </defs>
 <g id="Layer_x0020_1">
  <metadata id="CorelCorpID_0Corel-Layer"/>
  <g id="_296379632">
   <path class="fil0" d="M64 32c-3,0 -5,0 -7,1 -1,-1 -1,-2 -2,-3 0,-1 0,-2 0,-3 0,-1 1,-3 1,-3 0,0 0,-1 -2,-1 -1,0 -2,0 -2,1 -1,0 -1,1 -1,2 0,1 -3,6 -5,9 0,-1 -1,-2 -1,-3 0,-1 0,-2 0,-3 0,-1 1,-3 1,-3 0,0 0,-1 -2,-1 -1,0 -2,0 -2,1 -1,0 -1,1 -1,2 0,1 -4,9 -5,11 0,1 -1,2 -1,3 0,0 0,0 0,0 0,0 -1,0 -1,0l0 1c0,0 0,0 0,0 0,0 0,-1 0,-2 0,-3 2,-7 2,-7 0,0 0,-1 -1,-2 -1,0 -2,1 -2,1 0,0 0,0 0,0 0,0 1,-5 -2,-5 -2,0 -5,2 -7,4 0,1 -2,2 -4,3 -1,1 -2,1 -3,1l0 0c-4,-4 -12,-7 -11,-13 0,-2 0,-8 14,-15 11,-5 21,-4 22,0 2,4 -5,14 -16,15 -5,0 -7,-1 -8,-2 -1,-1 -1,-1 -1,-1 0,1 0,1 0,2 0,0 2,2 4,3 3,1 8,1 14,-1 7,-3 13,-11 11,-17 -1,-7 -12,-9 -22,-5 -6,2 -13,5 -18,10 -5,5 -6,10 -6,11 1,7 11,12 15,15 -1,0 -1,0 -1,0 -2,1 -9,5 -11,9 -2,4 0,8 2,8 5,1 10,-1 12,-5 3,-4 3,-9 2,-12l0 0 1 -1c1,0 2,-1 3,-1 -1,1 -1,3 -1,5 0,2 1,6 2,7 1,1 1,1 2,1 1,0 2,-2 3,-3 1,-2 2,-4 2,-4 0,0 -1,6 2,6 1,0 2,-2 2,-3l0 0c0,0 0,0 0,0 1,0 1,0 1,0l0 0c0,-1 1,-2 2,-5 2,-4 4,-9 4,-9 0,0 0,2 1,3 0,1 1,3 1,4 0,0 0,1 0,1l0 0c-1,0 -1,1 -1,1 -2,2 -4,4 -4,5 0,0 0,1 0,1 1,1 1,1 2,1 2,-1 2,-1 3,-1 1,0 1,-1 2,-1 2,-1 3,-3 3,-5 -1,-1 -1,-2 -1,-3 0,0 0,-1 0,-1 2,-3 4,-7 4,-7 0,0 0,1 1,3 0,1 1,2 1,3 -2,2 -3,4 -4,5 -1,3 0,4 1,4 1,0 2,0 2,0 1,0 2,-1 3,-2 1,-1 3,-2 2,-4 0,-1 0,-2 0,-3 2,-1 4,-1 7,-1 6,1 8,5 7,7 0,2 -1,2 -2,3 0,0 0,0 0,0 0,1 0,1 1,1 0,-1 3,-2 3,-5 0,-4 -4,-8 -10,-8l0 0zm-50 16c-2,3 -5,4 -6,3 -2,-1 -1,-4 1,-7 2,-1 4,-3 5,-3 1,-1 1,-1 2,-1 0,0 0,0 0,0 0,0 0,0 0,-1 1,4 0,7 -2,9zm16 -10c-1,2 -3,6 -4,6 0,0 -1,-4 0,-7 1,-2 2,-4 3,-5 1,-1 2,-1 2,-1 1,1 -1,6 -1,7zm12 6c0,0 0,0 0,0 0,0 0,0 0,0 0,0 1,-2 2,-3 0,0 1,-1 1,-1l0 0c0,2 -2,3 -3,4l0 0zm10 -2c0,0 0,-1 1,-3 0,0 1,-1 2,-2 0,0 0,0 0,1 0,2 -2,3 -3,4z"/>
  </g>
 </g>
</svg>
