<?xml version="1.0" encoding="UTF-8"?>
<!DOCTYPE svg PUBLIC "-//W3C//DTD SVG 1.1//EN" "http://www.w3.org/Graphics/SVG/1.1/DTD/svg11.dtd">
<!-- Creator: CorelDRAW X7 -->
<svg xmlns="http://www.w3.org/2000/svg" xml:space="preserve" width="0.5in" height="0.299929in" version="1.1" style="shape-rendering:geometricPrecision; text-rendering:geometricPrecision; image-rendering:optimizeQuality; fill-rule:evenodd; clip-rule:evenodd"
viewBox="0 0 78 47"
 xmlns:xlink="http://www.w3.org/1999/xlink">
 <defs>
  <style type="text/css">
   <![CDATA[
    .fil0 {fill:#00ACC1}
   ]]>
  </style>
 </defs>
 <g id="Layer_x0020_1">
  <metadata id="CorelCorpID_0Corel-Layer"/>
  <path class="fil0" d="M39 0c-10,0 -17,5 -20,16 4,-6 9,-8 14,-6 3,0 5,3 8,5 3,4 8,8 17,8 11,0 17,-5 20,-15 -4,5 -9,7 -14,6 -3,-1 -5,-3 -7,-6 -4,-4 -8,-8 -18,-8l0 0zm-20 23c-10,0 -16,6 -19,16 4,-5 8,-7 14,-6 3,1 5,3 7,5 4,4 8,9 18,9 10,0 17,-5 19,-16 -3,5 -8,7 -13,6 -3,-1 -5,-3 -8,-5 -3,-4 -8,-9 -18,-9l0 0z"/>
 </g>
</svg>
