<?xml version="1.0" encoding="UTF-8"?>
<!DOCTYPE svg PUBLIC "-//W3C//DTD SVG 1.1//EN" "http://www.w3.org/Graphics/SVG/1.1/DTD/svg11.dtd">
<!-- Creator: CorelDRAW X7 -->
<svg xmlns="http://www.w3.org/2000/svg" xml:space="preserve" width="0.500004in" height="0.368362in" version="1.1" style="shape-rendering:geometricPrecision; text-rendering:geometricPrecision; image-rendering:optimizeQuality; fill-rule:evenodd; clip-rule:evenodd"
viewBox="0 0 78 57"
 xmlns:xlink="http://www.w3.org/1999/xlink">
 <defs>
  <style type="text/css">
   <![CDATA[
    .fil0 {fill:black}
   ]]>
  </style>
 </defs>
 <g id="Layer_x0020_1">
  <metadata id="CorelCorpID_0Corel-Layer"/>
  <g id="_294251088">
   <g>
    <path class="fil0" d="M32 33c1,0 1,0 1,0 2,-3 2,-6 0,-8l-23 -23c-3,-3 -6,-3 -8,0 -3,2 -3,5 0,8l19 19 -19 19c-3,2 -3,6 0,8 2,2 5,2 8,0l22 -23 0 0zm-7 18c0,-3 2,-5 5,-5l42 0c3,0 6,2 6,5 0,3 -3,6 -6,6l-42 0c-3,0 -5,-3 -5,-6z"/>
   </g>
  </g>
 </g>
</svg>
