<?xml version="1.0" encoding="utf-8"?>
<!-- Svg Vector Icons : http://www.onlinewebfonts.com/icon -->
<!DOCTYPE svg PUBLIC "-//W3C//DTD SVG 1.1//EN" "http://www.w3.org/Graphics/SVG/1.1/DTD/svg11.dtd">
<svg version="1.1" xmlns="http://www.w3.org/2000/svg" xmlns:xlink="http://www.w3.org/1999/xlink" x="0px" y="0px" viewBox="0 0 256 256" enable-background="new 0 0 256 256" xml:space="preserve">
<metadata> Svg Vector Icons : http://www.onlinewebfonts.com/icon </metadata>
<g><g><path fill="#16e0bd" d="M246,54.8c-8.7,3.9-18,6.5-27.8,7.6c10-6,17.7-15.5,21.3-26.8c-9.4,5.5-19.7,9.6-30.8,11.8c-8.8-9.4-21.4-15.3-35.4-15.3c-26.7,0-48.4,21.7-48.4,48.4c0,3.8,0.4,7.5,1.3,11C86,89.5,50.3,70.3,26.4,41c-4.1,7.2-6.5,15.5-6.5,24.3c0,16.8,8.5,31.6,21.6,40.3c-7.9-0.2-15.4-2.4-21.9-6c0,0.2,0,0.4,0,0.6c0,23.5,16.7,43,38.8,47.5c-4.1,1.1-8.3,1.7-12.8,1.7c-3.1,0-6.1-0.3-9.1-0.9c6.2,19.2,24,33.2,45.2,33.6c-16.6,13-37.4,20.7-60.1,20.7c-3.9,0-7.8-0.2-11.6-0.7c21.4,13.8,46.9,21.7,74.2,21.7c89.1,0,137.7-73.8,137.7-137.8c0-2.1,0-4.2-0.1-6.3C231.3,73,239.5,64.5,246,54.8z"/></g></g>
</svg>